<svg width="32" height="32" viewBox="0 0 32 32" fill="none" xmlns="http://www.w3.org/2000/svg">
<path d="M24.4879 7.51499C22.8101 5.83872 20.6729 4.69751 18.3466 4.23563C16.0203 3.77375 13.6093 4.01192 11.4184 4.92005C9.22739 5.82817 7.35484 7.36548 6.03742 9.33764C4.72 11.3098 4.01685 13.6283 4.01685 16C4.01685 18.3717 4.72 20.6902 6.03742 22.6623C7.35484 24.6345 9.22739 26.1718 11.4184 27.0799C13.6093 27.9881 16.0203 28.2262 18.3466 27.7643C20.6729 27.3025 22.8101 26.1613 24.4879 24.485C26.7348 22.2328 27.9966 19.1813 27.9966 16C27.9966 12.8187 26.7348 9.76722 24.4879 7.51499ZM20.7089 19.279C20.8796 19.4691 20.9711 19.7174 20.9645 19.9729C20.9579 20.2283 20.8537 20.4716 20.6734 20.6527C20.4931 20.8337 20.2503 20.9389 19.9949 20.9466C19.7395 20.9543 19.4908 20.8639 19.2999 20.694L16.1899 17.584C16.1428 17.5375 16.0792 17.5114 16.0129 17.5114C15.9467 17.5114 15.8831 17.5375 15.8359 17.584L12.7269 20.694C12.537 20.8772 12.2833 20.9796 12.0194 20.9796C11.7555 20.9796 11.5019 20.8772 11.3119 20.694C11.2189 20.6011 11.1452 20.4908 11.0949 20.3694C11.0445 20.248 11.0186 20.1179 11.0186 19.9865C11.0186 19.8551 11.0445 19.7249 11.0949 19.6035C11.1452 19.4821 11.2189 19.3719 11.3119 19.279L14.4219 16.17C14.4452 16.1468 14.4636 16.1193 14.4762 16.0891C14.4888 16.0588 14.4953 16.0263 14.4953 15.9935C14.4953 15.9607 14.4888 15.9282 14.4762 15.8979C14.4636 15.8676 14.4452 15.8401 14.4219 15.817L11.3119 12.707C11.1392 12.5171 11.0462 12.268 11.052 12.0114C11.0579 11.7547 11.1622 11.5102 11.3434 11.3283C11.5246 11.1465 11.7688 11.0413 12.0254 11.0345C12.282 11.0278 12.5314 11.12 12.7219 11.292L15.8309 14.402C15.8541 14.4253 15.8817 14.4437 15.9121 14.4563C15.9425 14.4689 15.975 14.4754 16.0079 14.4754C16.0408 14.4754 16.0734 14.4689 16.1037 14.4563C16.1341 14.4437 16.1617 14.4253 16.1849 14.402L19.2949 11.292C19.4826 11.1045 19.737 10.9992 20.0023 10.9993C20.2675 10.9994 20.5219 11.1048 20.7094 11.2925C20.8969 11.4801 21.0022 11.7346 21.0021 11.9998C21.002 12.2651 20.8966 12.5195 20.7089 12.707L17.5989 15.817C17.5522 15.8638 17.526 15.9273 17.526 15.9935C17.526 16.0597 17.5522 16.1231 17.5989 16.17L20.7089 19.279Z" fill="#5D5D67"/>
</svg>
