<svg width="32" height="32" viewBox="0 0 32 32" fill="none" xmlns="http://www.w3.org/2000/svg">
<path d="M19.0397 26.3901L19.0517 26.3971C20.1138 27.0733 21.3748 27.3671 22.6264 27.2298C23.878 27.0925 25.0454 26.5325 25.9357 25.6421L26.7097 24.8681C27.0554 24.522 27.2496 24.0528 27.2496 23.5636C27.2496 23.0744 27.0554 22.6052 26.7097 22.2591L23.4487 19.0001C23.1026 18.6544 22.6334 18.4603 22.1442 18.4603C21.655 18.4603 21.1858 18.6544 20.8397 19.0001V19.0001C20.6685 19.1715 20.4653 19.3075 20.2415 19.4002C20.0178 19.493 19.7779 19.5407 19.5357 19.5407C19.2935 19.5407 19.0537 19.493 18.8299 19.4002C18.6062 19.3075 18.4029 19.1715 18.2317 19.0001L13.0137 13.7811C12.668 13.435 12.4739 12.9658 12.4739 12.4766C12.4739 11.9874 12.668 11.5182 13.0137 11.1721V11.1721C13.1851 11.0009 13.3211 10.7977 13.4138 10.5739C13.5066 10.3502 13.5543 10.1103 13.5543 9.86812C13.5543 9.6259 13.5066 9.38606 13.4138 9.16231C13.3211 8.93856 13.1851 8.73528 13.0137 8.56412L9.75372 5.30012C9.40759 4.95442 8.9384 4.76025 8.44922 4.76025C7.96003 4.76025 7.49084 4.95442 7.14472 5.30012L6.37072 6.07412C5.48054 6.9645 4.92053 8.13176 4.78309 9.38328C4.64565 10.6348 4.93899 11.8958 5.61472 12.9581L5.62272 12.9701C9.19613 18.2599 13.7507 22.8155 19.0397 26.3901V26.3901Z" stroke="#EC1115" stroke-width="1.5" stroke-linecap="round" stroke-linejoin="round"/>
</svg>
